Coordinates
version=1
nRows=13
nColumns=36
inDegrees=yes

Units are S.I. units (second, meters, Newtons, ...)
If the header above contains a line with 'inDegrees', this indicates whether rotational values are in degrees (yes) or radians (no).

endheader
time	pelvis_tilt	pelvis_list	pelvis_rotation	pelvis_tx	pelvis_ty	pelvis_tz	hip_flexion_r	hip_adduction_r	hip_rotation_r	knee_angle_r	knee_angle_r_beta	ankle_angle_r	subtalar_angle_r	mtp_angle_r	hip_flexion_l	hip_adduction_l	hip_rotation_l	knee_angle_l	knee_angle_l_beta	ankle_angle_l	subtalar_angle_l	mtp_angle_l	lumbar_extension	lumbar_bending	lumbar_rotation	arm_flex_r	arm_add_r	arm_rot_r	elbow_flex_r	pro_sup_r	arm_flex_l	arm_add_l	arm_rot_l	elbow_flex_l	pro_sup_l
      0.00000000	     -6.82703886	     -3.73618018	      0.43001290	      0.12376307	      0.94194682	      0.10966998	     12.80852200	     -0.74789292	     -2.02134986	      7.88188074	      0.13756477	      8.24437296	     -6.17335157	     -6.91844099	     13.97900360	     -5.86440612	     -9.26505025	      8.83395506	      0.15418160	      7.98673252	     -4.62671679	     -6.91844099	     13.95995671	      3.78658873	      0.72133054	     35.80562723	     15.49434754	     64.40664767	    119.63066533	     99.98354864	     23.91001023	      7.77387621	     40.10740964	    119.02438479	    101.80108265
      0.01666670	     -5.04805626	     -2.55647758	      0.39958761	      0.12546603	      0.94587066	      0.10881127	     10.80908378	     -1.68549235	     -1.81006298	      6.44941192	      0.11256347	      8.47504733	     -5.10478080	     -6.96851910	     11.11498897	     -4.58443837	    -11.96733365	      7.56132188	      0.13196996	      8.24759745	     -3.82870434	     -6.96851910	     12.19916137	      2.50881882	      1.50673111	     38.32463787	     15.34476132	     65.77773851	    121.16613143	    101.40389235	     24.52212818	      7.55017393	     41.77387084	    119.07969520	     98.87287867
      0.03333330	     -5.65576193	     -1.60821539	     -0.08414724	      0.12595503	      0.94650988	      0.10958957	     11.20333256	     -2.47727789	     -1.83738249	      5.67618584	      0.09906813	      7.66897513	     -5.72907023	     -7.20794570	     11.53213042	     -3.65494935	    -13.45753014	      7.34656330	      0.12822172	      8.14361194	     -3.00788287	     -7.20794570	     12.90411274	      1.41967975	      2.63112096	     38.22826719	     15.55606900	     66.46921938	    122.15022130	    103.78338106	     24.30968156	      7.18110938	     43.30385789	    119.63147772	     95.25679196
      0.05000000	     -5.51927899	     -1.13306679	     -0.44763192	      0.12487125	      0.94741151	      0.11002878	     11.11394618	     -3.03097401	     -1.70796959	      5.45894548	      0.09527657	      7.55985880	     -5.54521345	     -7.26111193	     11.01971922	     -3.12774109	    -14.07793658	      6.60574626	      0.11529202	      7.95276383	     -2.35920001	     -7.26111193	     12.53435311	      0.95839825	      3.31561132	     38.38882622	     15.59910380	     67.54419834	    122.28551554	    101.74782276	     24.72392998	      6.90367588	     44.72803798	    118.97862528	     92.46351022
      0.06666670	     -5.67258508	     -0.91044376	     -0.72230398	      0.12432453	      0.94726781	      0.11027367	     11.32871074	     -3.25249782	     -1.31672845	      5.34747404	      0.09333103	      7.25812256	     -5.85233223	     -7.32480948	     10.95741738	     -2.88646299	    -14.46301085	      6.05441085	      0.10566940	      7.86826274	     -1.71054462	     -7.32480948	     12.61542586	      0.90546570	      3.74187631	     38.24505075	     15.49856075	     68.08878592	    122.09998986	    103.72986826	     24.87076926	      6.81490908	     45.36403052	    118.51766543	     91.39658072
      0.08333330	     -6.04795606	     -0.75304983	     -0.80398060	      0.12348797	      0.94567784	      0.11055657	     11.75844093	     -3.38551165	     -1.14329824	      5.36783912	      0.09368647	      7.28111287	     -5.72120097	     -7.34850471	     11.30420400	     -2.69802439	    -14.21014348	      5.83079543	      0.10176658	      7.77591842	     -1.71012507	     -7.34850471	     13.08272445	      0.84448711	      3.98780022	     38.19181149	     15.27536649	     68.51345592	    122.07398939	    102.05167021	     24.93866754	      6.88685811	     45.79355813	    118.32311162	     88.95793817
      0.10000000	     -6.01560954	     -0.70188542	     -0.89758300	      0.12341770	      0.94673492	      0.11059741	     11.69413776	     -3.42983509	     -0.86792253	      5.25312197	      0.09168427	      7.12878759	     -5.82482037	     -7.37193026	     11.19514689	     -2.65895285	    -14.37879392	      5.61606112	      0.09801876	      7.87062769	     -1.14810415	     -7.37193026	     13.03864880	      0.99184845	      4.19546320	     38.26457267	     15.10003190	     68.70195952	    121.65277518	    101.27184153	     24.95967039	      6.93131348	     46.02420389	    118.09460363	     87.13529792
      0.11666670	     -6.43081679	     -0.62469254	     -0.92472278	      0.12223277	      0.94650839	      0.11090603	     12.19177146	     -3.48620873	     -0.72444394	      5.27232618	      0.09201945	      6.99791871	     -5.74816207	     -7.38283701	     11.64522643	     -2.56608254	    -14.17738981	      5.51284203	      0.09621724	      7.59485704	     -1.28736883	     -7.38283701	     13.57022408	      1.00052160	      4.37274744	     38.10581549	     14.83444018	     68.56636376	    121.50225658	    100.11642528	     24.76665162	      7.02998416	     45.85433531	    118.01401817	     85.81424781
      0.13333330	     -6.32983897	     -0.68401292	     -1.01436524	      0.12150390	      0.94606620	      0.11171420	     12.13269538	     -3.37455076	     -0.45129962	      5.41388369	      0.09449010	      6.96025627	     -5.98884558	     -7.39817960	     11.52679404	     -2.65712326	    -14.20553211	      5.47332181	      0.09552749	      7.63295889	     -1.14059356	     -7.39817960	     13.21149623	      0.99486410	      4.28278847	     38.34600003	     14.77430380	     68.87505979	    121.57185977	     98.92729853	     25.01202912	      6.94504794	     45.83967651	    118.01727486	     84.32948732
      0.15000000	     -6.38150867	     -0.71958883	     -1.15679429	      0.12026613	      0.94598381	      0.11205278	     12.32134415	     -3.28114662	     -0.25696824	      5.62158662	      0.09811520	      6.86740738	     -6.15579178	     -7.43079768	     11.58938043	     -2.73201366	    -14.45278366	      5.43755074	      0.09490316	      7.59759645	     -0.87635836	     -7.43079768	     13.04405731	      1.02253596	      4.27589893	     38.49006605	     14.71767616	     68.73157566	    121.63130767	    102.30133526	     25.07474296	      6.90882362	     45.61865645	    117.93573287	     86.09249547
      0.16666670	     -6.26853776	     -0.76177958	     -1.14250593	      0.12198241	      0.94704520	      0.11146562	     12.12998439	     -3.22689549	     -0.19649581	      5.46590970	      0.09539812	      6.62840997	     -6.25058385	     -7.44996022	     11.39485059	     -2.76801600	    -14.54273255	      5.27676516	      0.09209693	      7.41600942	     -0.88243005	     -7.44996022	     12.86094555	      1.05911650	      4.36312033	     38.58031250	     14.53876761	     68.81805587	    121.67581751	     98.59738742	     24.96454311	      6.90841505	     45.87924824	    117.69314901	     82.95460371
      0.18333330	     -6.35670251	     -0.76253044	     -1.18580290	      0.12133347	      0.94650852	      0.11159329	     12.24184709	     -3.20892969	     -0.16483642	      5.44551306	      0.09504213	      6.36754974	     -6.37149520	     -7.46563858	     11.48128499	     -2.77882105	    -14.72597439	      5.20921425	      0.09091794	      7.24560729	     -0.77575806	     -7.46563858	     12.86416389	      1.04648153	      4.56459456	     38.61454783	     14.40682319	     68.43764259	    121.93983125	    101.98962759	     24.85284441	      6.99169029	     45.88650245	    117.51781393	     85.31702564
      0.20000000	     -6.38300510	     -0.75085881	     -1.22770713	      0.11965335	      0.94744493	      0.11157035	     12.28443487	     -3.23117662	     -0.14850540	      5.34946174	      0.09336572	      6.20938999	     -6.22365472	     -7.46943790	     11.44605170	     -2.76017728	    -14.68839655	      5.13019230	      0.08953875	      6.97846494	     -0.81218267	     -7.46943790	     12.84574551	      1.03331176	      4.56043991	     38.51785886	     14.31280045	     68.61401130	    122.26609062	    100.31986206	     24.61878384	      6.98134117	     45.65625023	    117.85567956	     84.14192347
